# xmcd CD database file
#
# Track frame offsets:
#	150
#	18134
#	42491
#	62351
#	81408
#	95651
#	128262
#	144145
#	162417
#	192847
#	220840
#	243083
#	270559
#	292285
#	306966
#
# Disc length: 4341 seconds
#
# Revision: 0
# Processed by: cddbd v1.5.2PL0 Copyright (c) Steve Scherf et al.
# Submitted via: CDex 1.78
#
DISCID=cd10f30f
DTITLE=The Mitchells, The Jones Brothers - Get those elephants out'a here! - Keepin' up with The Joneses
DYEAR=1958
DGENRE=Jazz
TTITLE0=Get those elephants out'a here
TTITLE1=My one and only love
TTITLE2=In the wee small hours of the morning
TTITLE3=Moten swing
TTITLE4=Monster rally
TTITLE5=Three cheers
TTITLE6=Blues for Brian
TTITLE7=Fraternity
TTITLE8=Nice and easy
TTITLE9=Keeping up with the Joneses
TTITLE10=Three and one
TTITLE11=Sput 'n' Jeff
TTITLE12=It had to be you
TTITLE13=On the Alamo
TTITLE14=There is no greater love
EXTD=YEAR: 1958
EXTT0=
EXTT1=
EXTT2=
EXTT3=
EXTT4=
EXTT5=
EXTT6=
EXTT7=
EXTT8=
EXTT9=
EXTT10=
EXTT11=
EXTT12=
EXTT13=
EXTT14=
PLAYORDER=
